<svg xmlns="http://www.w3.org/2000/svg" width="400" height="400" viewBox="0 0 400 400" role="img" aria-label="GatherBuffs logo">
  <defs>
    <linearGradient id="bg" x1="0" y1="0" x2="1" y2="1">
      <stop offset="0%" stop-color="#0f2b2f"/>
      <stop offset="55%" stop-color="#143f34"/>
      <stop offset="100%" stop-color="#4b2c18"/>
    </linearGradient>
    <linearGradient id="coin" x1="0" y1="0" x2="1" y2="1">
      <stop offset="0%" stop-color="#ffe29a"/>
      <stop offset="100%" stop-color="#cc8b1f"/>
    </linearGradient>
    <linearGradient id="leaf" x1="0" y1="0" x2="1" y2="1">
      <stop offset="0%" stop-color="#9be875"/>
      <stop offset="100%" stop-color="#2d8c49"/>
    </linearGradient>
    <filter id="shadow" x="-20%" y="-20%" width="140%" height="140%">
      <feDropShadow dx="0" dy="10" stdDeviation="10" flood-color="#000000" flood-opacity="0.28"/>
    </filter>
  </defs>

  <rect width="400" height="400" rx="72" fill="url(#bg)"/>
  <circle cx="308" cy="90" r="56" fill="#ffffff" opacity="0.05"/>
  <circle cx="84" cy="326" r="74" fill="#ffffff" opacity="0.04"/>

  <g filter="url(#shadow)">
    <path d="M136 262c-8-54 24-112 84-144 20-10 45-18 66-19-3 22-12 48-24 69-37 66-88 104-126 94z" fill="url(#leaf)"/>
    <path d="M164 234c28-38 63-72 108-103" fill="none" stroke="#dfffd1" stroke-width="16" stroke-linecap="round" opacity="0.78"/>

    <circle cx="274" cy="250" r="60" fill="url(#coin)"/>
    <circle cx="274" cy="250" r="44" fill="none" stroke="#fff3cd" stroke-width="10" opacity="0.65"/>
    <path d="M242 250h64" stroke="#7e5310" stroke-width="12" stroke-linecap="round"/>
    <path d="M274 218v64" stroke="#7e5310" stroke-width="12" stroke-linecap="round"/>

    <path d="M93 115l26-40 26 40" fill="none" stroke="#c4d3d8" stroke-width="14" stroke-linecap="round" stroke-linejoin="round"/>
    <path d="M119 75v110" fill="none" stroke="#d7e2e5" stroke-width="14" stroke-linecap="round"/>
    <path d="M92 184l27-48 27 48" fill="none" stroke="#8a9aa0" stroke-width="14" stroke-linecap="round" stroke-linejoin="round"/>
  </g>

  <g fill="#f4f2e8">
    <text x="200" y="340" text-anchor="middle" font-family="Georgia, 'Times New Roman', serif" font-size="44" font-weight="700" letter-spacing="1.5">GatherBuffs</text>
  </g>
</svg>
